<svg version="1.1" xmlns="http://www.w3.org/2000/svg" xmlns:xlink="http://www.w3.org/1999/xlink" x="0px" y="0px"  viewBox="0 0 1200 800"  xml:space="preserve" preserveAspectRatio="xMinYMin meet" class="svg-content">
 <g>
  <title></title>
  <g id="Layer_3">
   <polygon id="svg_1" points="1400.6038331985474,696.8865051269531 1206.4208498001099,440.3725280761719 1093.7468996047974,833.5325012207031 " stroke-miterlimit="1" stroke-linejoin="round" stroke-width="2.3973" stroke="#4C72B8" fill="#4C72B8" class="triangle"/>
   <polygon id="svg_2" points="1400.6038331985474,696.8865051269531 1093.7468996047974,833.5325012207031 1254.3668947219849,869.4944763183594 " stroke-miterlimit="1" stroke-linejoin="round" stroke-width="2.3973" stroke="#4C75BA" fill="#4C75BA" class="triangle"/>
   <polygon id="svg_3" points="1206.4208498001099,440.3725280761719 1052.9907960891724,473.9335021972656 1093.7468996047974,833.5325012207031 " stroke-miterlimit="1" stroke-linejoin="round" stroke-width="2.3973" stroke="#4F71B7" fill="#4F71B7" class="triangle"/>
   <polygon id="svg_4" points="1093.7468996047974,833.5325012207031 1052.9907960891724,473.9335021972656 954.6997804641724,636.9515075683594 " stroke-miterlimit="1" stroke-linejoin="round" stroke-width="2.3973" stroke="#5375B9" fill="#5375B9" class="triangle"/>
   <polygon id="svg_5" points="1225.5988283157349,16.04449462890625 1069.7729005813599,-317.1835021972656 978.6748781204224,-178.13851928710938 " stroke-miterlimit="1" stroke-linejoin="round" stroke-width="2.3973" stroke="#484C86" fill="#484C86" class="triangle"/>
   <polygon id="svg_6" points="1225.5988283157349,16.04449462890625 978.6748781204224,-178.13851928710938 1074.5668458938599,35.22349548339844 " stroke-miterlimit="1" stroke-linejoin="round" stroke-width="2.3973" stroke="#49508D" fill="#49508D" class="triangle"/>
   <polygon id="svg_7" points="1074.5668458938599,35.22349548339844 978.6748781204224,-178.13851928710938 983.4678468704224,-31.901512145996094 " stroke-miterlimit="1" stroke-linejoin="round" stroke-width="2.3973" stroke="#4E508E" fill="#4E508E" class="triangle"/>
   <polygon id="svg_8" points="1247.1758546829224,274.9554748535156 1055.3898439407349,327.697509765625 1225.5988283157349,418.7955017089844 " stroke-miterlimit="1" stroke-linejoin="round" stroke-width="2.3973" stroke="#4661AD" fill="#4661AD" class="triangle"/>
   <polygon id="svg_9" points="1247.1758546829224,274.9554748535156 1055.3898439407349,301.3265075683594 1055.3898439407349,327.697509765625 " stroke-miterlimit="1" stroke-linejoin="round" stroke-width="2.3973" stroke="#495FAB" fill="#495FAB" class="triangle"/>
   <polygon id="svg_10" points="1237.5868654251099,47.20948791503906 1074.5668458938599,35.22349548339844 1211.2158937454224,169.47348022460938 " stroke-miterlimit="1" stroke-linejoin="round" stroke-width="2.3973" stroke="#455494" fill="#455494" class="triangle"/>
   <polygon id="svg_11" points="1247.1758546829224,274.9554748535156 1211.2158937454224,222.21548461914062 1055.3898439407349,301.3265075683594 " stroke-miterlimit="1" stroke-linejoin="round" stroke-width="2.3973" stroke="#465CA5" fill="#465CA5" class="triangle"/>
   <polygon id="svg_12" points="1225.5988283157349,418.7955017089844 1055.3898439407349,327.697509765625 1206.4208498001099,440.3725280761719 " stroke-miterlimit="1" stroke-linejoin="round" stroke-width="2.3973" stroke="#4965AF" fill="#4965AF" class="triangle"/>
   <polygon id="svg_13" points="1237.5868654251099,47.20948791503906 1225.5988283157349,16.04449462890625 1074.5668458938599,35.22349548339844 " stroke-miterlimit="1" stroke-linejoin="round" stroke-width="2.3973" stroke="#465290" fill="#465290" class="triangle"/>
   <polygon id="svg_14" points="1206.4208498001099,440.3725280761719 1055.3898439407349,327.697509765625 1052.9907960891724,473.9335021972656 " stroke-miterlimit="1" stroke-linejoin="round" stroke-width="2.3973" stroke="#4B67B0" fill="#4B67B0" class="triangle"/>
   <polygon id="svg_15" points="1211.2158937454224,169.47348022460938 1074.5668458938599,35.22349548339844 981.0718507766724,203.03646850585938 " stroke-miterlimit="1" stroke-linejoin="round" stroke-width="2.3973" stroke="#4B579B" fill="#4B579B" class="triangle"/>
   <polygon id="svg_16" points="1211.2158937454224,169.47348022460938 981.0718507766724,203.03646850585938 1055.3898439407349,301.3265075683594 " stroke-miterlimit="1" stroke-linejoin="round" stroke-width="2.3973" stroke="#4A5BA4" fill="#4A5BA4" class="triangle"/>
   <polygon id="svg_17" points="1211.2158937454224,222.21548461914062 1211.2158937454224,169.47348022460938 1055.3898439407349,301.3265075683594 " stroke-miterlimit="1" stroke-linejoin="round" stroke-width="2.3973" stroke="#4759A1" fill="#4759A1" class="triangle"/>
   <polygon id="svg_18" points="1055.3898439407349,327.697509765625 1036.2108888626099,461.9474792480469 1052.9907960891724,473.9335021972656 " stroke-miterlimit="1" stroke-linejoin="round" stroke-width="2.3973" stroke="#4E67B0" fill="#4E67B0" class="triangle"/>
   <polygon id="svg_19" points="1093.7468996047974,833.5325012207031 954.6997804641724,636.9515075683594 1048.1968507766724,857.5074768066406 " stroke-miterlimit="1" stroke-linejoin="round" stroke-width="2.3973" stroke="#5479BC" fill="#5479BC" class="triangle"/>
   <polygon id="svg_20" points="1074.5668458938599,35.22349548339844 913.9458131790161,128.719482421875 981.0718507766724,203.03646850585938 " stroke-miterlimit="1" stroke-linejoin="round" stroke-width="2.3973" stroke="#52579C" fill="#52579C" class="triangle"/>
   <polygon id="svg_21" points="1055.3898439407349,327.697509765625 961.8918581008911,402.0144958496094 1036.2108888626099,461.9474792480469 " stroke-miterlimit="1" stroke-linejoin="round" stroke-width="2.3973" stroke="#5066AF" fill="#5066AF" class="triangle"/>
   <polygon id="svg_22" points="1055.3898439407349,301.3265075683594 981.0718507766724,203.03646850585938 973.8798341751099,255.77749633789062 " stroke-miterlimit="1" stroke-linejoin="round" stroke-width="2.3973" stroke="#505DA9" fill="#505DA9" class="triangle"/>
   <polygon id="svg_23" points="1052.9907960891724,473.9335021972656 969.0847902297974,464.3455505371094 954.6997804641724,636.9515075683594 " stroke-miterlimit="1" stroke-linejoin="round" stroke-width="2.3973" stroke="#526DB4" fill="#526DB4" class="triangle"/>
   <polygon id="svg_24" points="1048.1968507766724,857.5074768066406 954.6997804641724,636.9515075683594 825.2458009719849,716.0654602050781 " stroke-miterlimit="1" stroke-linejoin="round" stroke-width="2.3973" stroke="#5274B9" fill="#5274B9" class="triangle"/>
   <polygon id="svg_25" points="1055.3898439407349,327.697509765625 1021.8268556594849,318.1085205078125 961.8918581008911,402.0144958496094 " stroke-miterlimit="1" stroke-linejoin="round" stroke-width="2.3973" stroke="#5163AD" fill="#5163AD" class="triangle"/>
   <polygon id="svg_26" points="1074.5668458938599,35.22349548339844 983.4678468704224,-31.901512145996094 913.9458131790161,128.719482421875 " stroke-miterlimit="1" stroke-linejoin="round" stroke-width="2.3973" stroke="#515495" fill="#515495" class="triangle"/>
   <polygon id="svg_27" points="1052.9907960891724,473.9335021972656 1036.2108888626099,461.9474792480469 969.0847902297974,464.3455505371094 " stroke-miterlimit="1" stroke-linejoin="round" stroke-width="2.3973" stroke="#506AB2" fill="#506AB2" class="triangle"/>
   <polygon id="svg_28" points="1055.3898439407349,301.3265075683594 973.8798341751099,255.77749633789062 1021.8268556594849,318.1085205078125 " stroke-miterlimit="1" stroke-linejoin="round" stroke-width="2.3973" stroke="#505FAB" fill="#505FAB" class="triangle"/>
   <polygon id="svg_29" points="1055.3898439407349,301.3265075683594 1021.8268556594849,318.1085205078125 1055.3898439407349,327.697509765625 " stroke-miterlimit="1" stroke-linejoin="round" stroke-width="2.3973" stroke="#4E60AC" fill="#4E60AC" class="triangle"/>
   <polygon id="svg_30" points="1048.1968507766724,857.5074768066406 825.2458009719849,716.0654602050781 806.0668458938599,898.2624816894531 " stroke-miterlimit="1" stroke-linejoin="round" stroke-width="2.3973" stroke="#5172B7" fill="#5172B7" class="triangle"/>
   <polygon id="svg_31" points="1021.8268556594849,318.1085205078125 952.3028078079224,346.8764953613281 961.8918581008911,402.0144958496094 " stroke-miterlimit="1" stroke-linejoin="round" stroke-width="2.3973" stroke="#5363AD" fill="#5363AD" class="triangle"/>
   <polygon id="svg_32" points="1036.2108888626099,461.9474792480469 961.8918581008911,402.0144958496094 969.0847902297974,464.3455505371094 " stroke-miterlimit="1" stroke-linejoin="round" stroke-width="2.3973" stroke="#5169B1" fill="#5169B1" class="triangle"/>
   <polygon id="svg_33" points="969.0847902297974,464.3455505371094 887.5758180618286,605.7875061035156 954.6997804641724,636.9515075683594 " stroke-miterlimit="1" stroke-linejoin="round" stroke-width="2.3973" stroke="#536EB5" fill="#536EB5" class="triangle"/>
   <polygon id="svg_34" points="1021.8268556594849,318.1085205078125 973.8798341751099,255.77749633789062 952.3028078079224,346.8764953613281 " stroke-miterlimit="1" stroke-linejoin="round" stroke-width="2.3973" stroke="#5160AC" fill="#5160AC" class="triangle"/>
   <polygon id="svg_35" points="983.4678468704224,-31.901512145996094 753.3248414993286,35.22349548339844 913.9458131790161,128.719482421875 " stroke-miterlimit="1" stroke-linejoin="round" stroke-width="2.3973" stroke="#595596" fill="#595596" class="triangle"/>
   <polygon id="svg_36" points="983.4678468704224,-31.901512145996094 786.8877687454224,-99.02751159667969 753.3248414993286,35.22349548339844 " stroke-miterlimit="1" stroke-linejoin="round" stroke-width="2.3973" stroke="#5B5192" fill="#5B5192" class="triangle"/>
   <polygon id="svg_37" points="983.4678468704224,-31.901512145996094 978.6748781204224,-178.13851928710938 786.8877687454224,-99.02751159667969 " stroke-miterlimit="1" stroke-linejoin="round" stroke-width="2.3973" stroke="#534F8D" fill="#534F8D" class="triangle"/>
   <polygon id="svg_38" points="981.0718507766724,203.03646850585938 868.3977785110474,152.69247436523438 973.8798341751099,255.77749633789062 " stroke-miterlimit="1" stroke-linejoin="round" stroke-width="2.3973" stroke="#555BA4" fill="#555BA4" class="triangle"/>
   <polygon id="svg_39" points="981.0718507766724,203.03646850585938 913.9458131790161,128.719482421875 868.3977785110474,152.69247436523438 " stroke-miterlimit="1" stroke-linejoin="round" stroke-width="2.3973" stroke="#57599F" fill="#57599F" class="triangle"/>
   <polygon id="svg_40" points="969.0847902297974,464.3455505371094 782.0928468704224,509.8934631347656 887.5758180618286,605.7875061035156 " stroke-miterlimit="1" stroke-linejoin="round" stroke-width="2.3973" stroke="#566BB2" fill="#566BB2" class="triangle"/>
   <polygon id="svg_41" points="969.0847902297974,464.3455505371094 961.8918581008911,402.0144958496094 887.5758180618286,390.0274963378906 " stroke-miterlimit="1" stroke-linejoin="round" stroke-width="2.3973" stroke="#5566AF" fill="#5566AF" class="triangle"/>
   <polygon id="svg_42" points="973.8798341751099,255.77749633789062 813.2588624954224,289.3395080566406 952.3028078079224,346.8764953613281 " stroke-miterlimit="1" stroke-linejoin="round" stroke-width="2.3973" stroke="#5760AB" fill="#5760AB" class="triangle"/>
   <polygon id="svg_43" points="973.8798341751099,255.77749633789062 868.3977785110474,152.69247436523438 813.2588624954224,289.3395080566406 " stroke-miterlimit="1" stroke-linejoin="round" stroke-width="2.3973" stroke="#5A5CA7" fill="#5A5CA7" class="triangle"/>
   <polygon id="svg_44" points="961.8918581008911,402.0144958496094 952.3028078079224,346.8764953613281 887.5758180618286,390.0274963378906 " stroke-miterlimit="1" stroke-linejoin="round" stroke-width="2.3973" stroke="#5564AE" fill="#5564AE" class="triangle"/>
   <polygon id="svg_45" points="969.0847902297974,464.3455505371094 887.5758180618286,390.0274963378906 865.9998292922974,390.0274963378906 " stroke-miterlimit="1" stroke-linejoin="round" stroke-width="2.3973" stroke="#5766AF" fill="#5766AF" class="triangle"/>
   <polygon id="svg_46" points="969.0847902297974,464.3455505371094 865.9998292922974,390.0274963378906 782.0928468704224,509.8934631347656 " stroke-miterlimit="1" stroke-linejoin="round" stroke-width="2.3973" stroke="#5867AF" fill="#5867AF" class="triangle"/>
   <polygon id="svg_47" points="952.3028078079224,346.8764953613281 813.2588624954224,289.3395080566406 851.6158571243286,370.8485107421875 " stroke-miterlimit="1" stroke-linejoin="round" stroke-width="2.3973" stroke="#5961AC" fill="#5961AC" class="triangle"/>
   <polygon id="svg_48" points="954.6997804641724,636.9515075683594 887.5758180618286,605.7875061035156 825.2458009719849,716.0654602050781 " stroke-miterlimit="1" stroke-linejoin="round" stroke-width="2.3973" stroke="#546FB5" fill="#546FB5" class="triangle"/>
   <polygon id="svg_49" points="952.3028078079224,346.8764953613281 851.6158571243286,370.8485107421875 887.5758180618286,390.0274963378906 " stroke-miterlimit="1" stroke-linejoin="round" stroke-width="2.3973" stroke="#5863AD" fill="#5863AD" class="triangle"/>
   <polygon id="svg_50" points="825.2458009719849,716.0654602050781 786.8877687454224,737.6394958496094 806.0668458938599,898.2624816894531 " stroke-miterlimit="1" stroke-linejoin="round" stroke-width="2.3973" stroke="#526DB4" fill="#526DB4" class="triangle"/>
   <polygon id="svg_51" points="918.6865358352661,131.08987426757812 758.0655641555786,37.59385681152344 873.1385622024536,155.0628662109375 " stroke-miterlimit="1" stroke-linejoin="round" stroke-width="2.3973" stroke="#5E579C" fill="#5E579C" class="triangle"/>
   <polygon id="svg_52" points="806.0668458938599,898.2624816894531 786.8877687454224,737.6394958496094 796.4767580032349,893.4674987792969 " stroke-miterlimit="1" stroke-linejoin="round" stroke-width="2.3973" stroke="#4F6BB3" fill="#4F6BB3" class="triangle"/>
   <polygon id="svg_53" points="865.9998292922974,390.0274963378906 825.2458009719849,390.0274963378906 782.0928468704224,509.8934631347656 " stroke-miterlimit="1" stroke-linejoin="round" stroke-width="2.3973" stroke="#5C65AE" fill="#5C65AE" class="triangle"/>
   <polygon id="svg_54" points="786.8877687454224,-99.02751159667969 743.7358522415161,-65.46450805664062 753.3248414993286,35.22349548339844 " stroke-miterlimit="1" stroke-linejoin="round" stroke-width="2.3973" stroke="#625294" fill="#625294" class="triangle"/>
   <polygon id="svg_55" points="887.5758180618286,605.7875061035156 782.0928468704224,509.8934631347656 758.1198244094849,600.9914855957031 " stroke-miterlimit="1" stroke-linejoin="round" stroke-width="2.3973" stroke="#5869B1" fill="#5869B1" class="triangle"/>
   <polygon id="svg_56" points="887.5758180618286,605.7875061035156 760.5167970657349,658.5274963378906 825.2458009719849,716.0654602050781 " stroke-miterlimit="1" stroke-linejoin="round" stroke-width="2.3973" stroke="#556DB4" fill="#556DB4" class="triangle"/>
   <polygon id="svg_57" points="887.5758180618286,605.7875061035156 758.1198244094849,600.9914855957031 760.5167970657349,658.5274963378906 " stroke-miterlimit="1" stroke-linejoin="round" stroke-width="2.3973" stroke="#576BB2" fill="#576BB2" class="triangle"/>
   <polygon id="svg_58" points="887.5758180618286,390.0274963378906 851.6158571243286,370.8485107421875 865.9998292922974,390.0274963378906 " stroke-miterlimit="1" stroke-linejoin="round" stroke-width="2.3973" stroke="#5A63AD" fill="#5A63AD" class="triangle"/>
   <polygon id="svg_59" points="868.3977785110474,152.69247436523438 659.8297853469849,215.02346801757812 813.2588624954224,289.3395080566406 " stroke-miterlimit="1" stroke-linejoin="round" stroke-width="2.3973" stroke="#655BA7" fill="#655BA7" class="triangle"/>
   <polygon id="svg_60" points="868.3977785110474,152.69247436523438 753.3248414993286,35.22349548339844 659.8297853469849,215.02346801757812 " stroke-miterlimit="1" stroke-linejoin="round" stroke-width="2.3973" stroke="#6759A0" fill="#6759A0" class="triangle"/>
   <polygon id="svg_61" points="865.9998292922974,390.0274963378906 851.6158571243286,370.8485107421875 825.2458009719849,390.0274963378906 " stroke-miterlimit="1" stroke-linejoin="round" stroke-width="2.3973" stroke="#5B63AD" fill="#5B63AD" class="triangle"/>
   <polygon id="svg_62" points="851.6158571243286,370.8485107421875 813.2588624954224,289.3395080566406 825.2458009719849,390.0274963378906 " stroke-miterlimit="1" stroke-linejoin="round" stroke-width="2.3973" stroke="#5D61AC" fill="#5D61AC" class="triangle"/>
   <polygon id="svg_63" points="825.2458009719849,716.0654602050781 760.5167970657349,658.5274963378906 772.5038576126099,711.2695007324219 " stroke-miterlimit="1" stroke-linejoin="round" stroke-width="2.3973" stroke="#556CB3" fill="#556CB3" class="triangle"/>
   <polygon id="svg_64" points="753.3248414993286,35.22349548339844 743.7358522415161,-65.46450805664062 719.7617921829224,-27.107513427734375 " stroke-miterlimit="1" stroke-linejoin="round" stroke-width="2.3973" stroke="#665396" fill="#665396" class="triangle"/>
   <polygon id="svg_65" points="796.4767580032349,893.4674987792969 786.8877687454224,737.6394958496094 676.6107912063599,850.3144836425781 " stroke-miterlimit="1" stroke-linejoin="round" stroke-width="2.3973" stroke="#5069B2" fill="#5069B2" class="triangle"/>
   <polygon id="svg_66" points="825.2458009719849,390.0274963378906 813.2588624954224,289.3395080566406 602.2937746047974,370.8485107421875 " stroke-miterlimit="1" stroke-linejoin="round" stroke-width="2.3973" stroke="#6760AA" fill="#6760AA" class="triangle"/>
   <polygon id="svg_67" points="825.2458009719849,390.0274963378906 616.6778688430786,459.5505065917969 782.0928468704224,509.8934631347656 " stroke-miterlimit="1" stroke-linejoin="round" stroke-width="2.3973" stroke="#6263AD" fill="#6263AD" class="triangle"/>
   <polygon id="svg_68" points="825.2458009719849,390.0274963378906 602.2937746047974,370.8485107421875 616.6778688430786,459.5505065917969 " stroke-miterlimit="1" stroke-linejoin="round" stroke-width="2.3973" stroke="#6B61AB" fill="#6B61AB" class="triangle"/>
   <polygon id="svg_69" points="825.2458009719849,716.0654602050781 772.5038576126099,711.2695007324219 786.8877687454224,737.6394958496094 " stroke-miterlimit="1" stroke-linejoin="round" stroke-width="2.3973" stroke="#536CB3" fill="#536CB3" class="triangle"/>
   <polygon id="svg_70" points="813.2588624954224,289.3395080566406 659.8297853469849,215.02346801757812 602.2937746047974,370.8485107421875 " stroke-miterlimit="1" stroke-linejoin="round" stroke-width="2.3973" stroke="#6F5EA9" fill="#6F5EA9" class="triangle"/>
   <polygon id="svg_71" points="753.3248414993286,35.22349548339844 731.7497682571411,28.031494140625 659.8297853469849,215.02346801757812 " stroke-miterlimit="1" stroke-linejoin="round" stroke-width="2.3973" stroke="#6D589D" fill="#6D589D" class="triangle"/>
   <polygon id="svg_72" points="760.5167970657349,658.5274963378906 758.1198244094849,600.9914855957031 743.7358522415161,627.3634948730469 " stroke-miterlimit="1" stroke-linejoin="round" stroke-width="2.3973" stroke="#5968B0" fill="#5968B0" class="triangle"/>
   <polygon id="svg_73" points="753.3248414993286,35.22349548339844 719.7617921829224,-27.107513427734375 731.7497682571411,28.031494140625 " stroke-miterlimit="1" stroke-linejoin="round" stroke-width="2.3973" stroke="#675597" fill="#675597" class="triangle"/>
   <polygon id="svg_74" points="786.8877687454224,737.6394958496094 772.5038576126099,711.2695007324219 676.6107912063599,850.3144836425781 " stroke-miterlimit="1" stroke-linejoin="round" stroke-width="2.3973" stroke="#5369B2" fill="#5369B2" class="triangle"/>
   <polygon id="svg_75" points="786.8877687454224,-99.02751159667969 786.8877687454224,-115.80751037597656 743.7358522415161,-65.46450805664062 " stroke-miterlimit="1" stroke-linejoin="round" stroke-width="2.3973" stroke="#5F5190" fill="#5F5190" class="triangle"/>
   <polygon id="svg_76" points="786.8877687454224,-115.80751037597656 695.7898683547974,-132.58950805664062 743.7358522415161,-65.46450805664062 " stroke-miterlimit="1" stroke-linejoin="round" stroke-width="2.3973" stroke="#615190" fill="#615190" class="triangle"/>
   <polygon id="svg_77" points="782.0928468704224,509.8934631347656 616.6778688430786,459.5505065917969 758.1198244094849,600.9914855957031 " stroke-miterlimit="1" stroke-linejoin="round" stroke-width="2.3973" stroke="#6065AE" fill="#6065AE" class="triangle"/>
   <polygon id="svg_78" points="758.1198244094849,600.9914855957031 616.6778688430786,459.5505065917969 580.7178468704224,512.2914733886719 " stroke-miterlimit="1" stroke-linejoin="round" stroke-width="2.3973" stroke="#6662AC" fill="#6662AC" class="triangle"/>
   <polygon id="svg_79" points="772.5038576126099,711.2695007324219 760.5167970657349,658.5274963378906 559.1408205032349,684.8984680175781 " stroke-miterlimit="1" stroke-linejoin="round" stroke-width="2.3973" stroke="#5866AF" fill="#5866AF" class="triangle"/>
   <polygon id="svg_80" points="772.5038576126099,711.2695007324219 559.1408205032349,684.8984680175781 676.6107912063599,850.3144836425781 " stroke-miterlimit="1" stroke-linejoin="round" stroke-width="2.3973" stroke="#5665AE" fill="#5665AE" class="triangle"/>
   <polygon id="svg_81" points="760.5167970657349,658.5274963378906 743.7358522415161,627.3634948730469 559.1408205032349,684.8984680175781 " stroke-miterlimit="1" stroke-linejoin="round" stroke-width="2.3973" stroke="#5B66AF" fill="#5B66AF" class="triangle"/>
   <polygon id="svg_82" points="758.1198244094849,600.9914855957031 580.7178468704224,512.2914733886719 743.7358522415161,627.3634948730469 " stroke-miterlimit="1" stroke-linejoin="round" stroke-width="2.3973" stroke="#5E65AE" fill="#5E65AE" class="triangle"/>
   <polygon id="svg_83" points="731.7497682571411,28.031494140625 544.7577638626099,179.0634765625 659.8297853469849,215.02346801757812 " stroke-miterlimit="1" stroke-linejoin="round" stroke-width="2.3973" stroke="#795AA1" fill="#795AA1" class="triangle"/>
   <polygon id="svg_84" points="731.7497682571411,28.031494140625 559.1408205032349,-17.51750946044922 518.3868532180786,32.82548522949219 " stroke-miterlimit="1" stroke-linejoin="round" stroke-width="2.3973" stroke="#79569B" fill="#79569B" class="triangle"/>
   <polygon id="svg_85" points="731.7497682571411,28.031494140625 518.3868532180786,32.82548522949219 544.7577638626099,179.0634765625 " stroke-miterlimit="1" stroke-linejoin="round" stroke-width="2.3973" stroke="#7F59A0" fill="#7F59A0" class="triangle"/>
   <polygon id="svg_86" points="743.7358522415161,627.3634948730469 580.7178468704224,512.2914733886719 556.7448244094849,627.3634948730469 " stroke-miterlimit="1" stroke-linejoin="round" stroke-width="2.3973" stroke="#6362AC" fill="#6362AC" class="triangle"/>
   <polygon id="svg_87" points="743.7358522415161,627.3634948730469 556.7448244094849,627.3634948730469 559.1408205032349,684.8984680175781 " stroke-miterlimit="1" stroke-linejoin="round" stroke-width="2.3973" stroke="#5D62AC" fill="#5D62AC" class="triangle"/>
   <polygon id="svg_88" points="743.7358522415161,-65.46450805664062 664.6247682571411,-67.86151123046875 719.7617921829224,-27.107513427734375 " stroke-miterlimit="1" stroke-linejoin="round" stroke-width="2.3973" stroke="#675394" fill="#675394" class="triangle"/>
   <polygon id="svg_89" points="743.7358522415161,-65.46450805664062 695.7898683547974,-132.58950805664062 664.6247682571411,-67.86151123046875 " stroke-miterlimit="1" stroke-linejoin="round" stroke-width="2.3973" stroke="#665192" fill="#665192" class="triangle"/>
   <polygon id="svg_90" points="676.6107912063599,850.3144836425781 559.1408205032349,684.8984680175781 539.9628419876099,797.5724792480469 " stroke-miterlimit="1" stroke-linejoin="round" stroke-width="2.3973" stroke="#5560AB" fill="#5560AB" class="triangle"/>
   <polygon id="svg_91" points="731.7497682571411,28.031494140625 719.7617921829224,-27.107513427734375 559.1408205032349,-17.51750946044922 " stroke-miterlimit="1" stroke-linejoin="round" stroke-width="2.3973" stroke="#6F5598" fill="#6F5598" class="triangle"/>
   <polygon id="svg_92" points="719.7617921829224,-27.107513427734375 664.6247682571411,-67.86151123046875 559.1408205032349,-17.51750946044922 " stroke-miterlimit="1" stroke-linejoin="round" stroke-width="2.3973" stroke="#6F5498" fill="#6F5498" class="triangle"/>
   <polygon id="svg_93" points="695.7898683547974,-132.58950805664062 638.2537965774536,-127.79550170898438 664.6247682571411,-67.86151123046875 " stroke-miterlimit="1" stroke-linejoin="round" stroke-width="2.3973" stroke="#685191" fill="#685191" class="triangle"/>
   <polygon id="svg_94" points="659.8297853469849,215.02346801757812 513.5927858352661,234.20147705078125 602.2937746047974,370.8485107421875 " stroke-miterlimit="1" stroke-linejoin="round" stroke-width="2.3973" stroke="#815EA8" fill="#815EA8" class="triangle"/>
   <polygon id="svg_95" points="664.6247682571411,-67.86151123046875 638.2537965774536,-127.79550170898438 559.1408205032349,-17.51750946044922 " stroke-miterlimit="1" stroke-linejoin="round" stroke-width="2.3973" stroke="#705394" fill="#705394" class="triangle"/>
   <polygon id="svg_96" points="659.8297853469849,215.02346801757812 544.7577638626099,179.0634765625 513.5927858352661,234.20147705078125 " stroke-miterlimit="1" stroke-linejoin="round" stroke-width="2.3973" stroke="#875DA7" fill="#875DA7" class="triangle"/>
   <polygon id="svg_97" points="580.7178468704224,512.2914733886719 527.9767580032349,565.0334777832031 556.7448244094849,627.3634948730469 " stroke-miterlimit="1" stroke-linejoin="round" stroke-width="2.3973" stroke="#6A5FAA" fill="#6A5FAA" class="triangle"/>
   <polygon id="svg_98" points="616.6778688430786,459.5505065917969 602.2937746047974,370.8485107421875 563.9358644485474,411.6025085449219 " stroke-miterlimit="1" stroke-linejoin="round" stroke-width="2.3973" stroke="#7560AA" fill="#7560AA" class="triangle"/>
   <polygon id="svg_99" points="638.2537965774536,-127.79550170898438 472.8377809524536,-134.98751831054688 559.1408205032349,-17.51750946044922 " stroke-miterlimit="1" stroke-linejoin="round" stroke-width="2.3973" stroke="#765395" fill="#765395" class="triangle"/>
   <polygon id="svg_100" points="616.6778688430786,459.5505065917969 563.9358644485474,411.6025085449219 580.7178468704224,512.2914733886719 " stroke-miterlimit="1" stroke-linejoin="round" stroke-width="2.3973" stroke="#7160AA" fill="#7160AA" class="triangle"/>
   <polygon id="svg_101" points="602.2937746047974,370.8485107421875 513.5927858352661,234.20147705078125 563.9358644485474,411.6025085449219 " stroke-miterlimit="1" stroke-linejoin="round" stroke-width="2.3973" stroke="#825FA9" fill="#825FA9" class="triangle"/>
   <polygon id="svg_102" points="559.1408205032349,684.8984680175781 480.02985858917236,723.2565002441406 539.9628419876099,797.5724792480469 " stroke-miterlimit="1" stroke-linejoin="round" stroke-width="2.3973" stroke="#5A5EAA" fill="#5A5EAA" class="triangle"/>
   <polygon id="svg_103" points="563.9358644485474,411.6025085449219 513.5927858352661,234.20147705078125 379.34187030792236,373.24652099609375 " stroke-miterlimit="1" stroke-linejoin="round" stroke-width="2.3973" stroke="#8F5FA7" fill="#8F5FA7" class="triangle"/>
   <polygon id="svg_104" points="580.7178468704224,512.2914733886719 563.9358644485474,411.6025085449219 492.01582050323486,519.4834899902344 " stroke-miterlimit="1" stroke-linejoin="round" stroke-width="2.3973" stroke="#745FA9" fill="#745FA9" class="triangle"/>
   <polygon id="svg_105" points="544.7577638626099,179.0634765625 518.3868532180786,32.82548522949219 451.26179218292236,167.07550048828125 " stroke-miterlimit="1" stroke-linejoin="round" stroke-width="2.3973" stroke="#945CA6" fill="#945CA6" class="triangle"/>
   <polygon id="svg_106" points="580.7178468704224,512.2914733886719 492.01582050323486,519.4834899902344 527.9767580032349,565.0334777832031 " stroke-miterlimit="1" stroke-linejoin="round" stroke-width="2.3973" stroke="#6F5FA9" fill="#6F5FA9" class="triangle"/>
   <polygon id="svg_107" points="559.1408205032349,-17.51750946044922 472.8377809524536,-134.98751831054688 434.48078632354736,-31.901512145996094 " stroke-miterlimit="1" stroke-linejoin="round" stroke-width="2.3973" stroke="#83559A" fill="#83559A" class="triangle"/>
   <polygon id="svg_108" points="559.1408205032349,684.8984680175781 556.7448244094849,627.3634948730469 480.02985858917236,723.2565002441406 " stroke-miterlimit="1" stroke-linejoin="round" stroke-width="2.3973" stroke="#605EAA" fill="#605EAA" class="triangle"/>
   <polygon id="svg_109" points="563.9358644485474,411.6025085449219 379.34187030792236,373.24652099609375 492.01582050323486,519.4834899902344 " stroke-miterlimit="1" stroke-linejoin="round" stroke-width="2.3973" stroke="#825EA8" fill="#825EA8" class="triangle"/>
   <polygon id="svg_110" points="559.1408205032349,-17.51750946044922 434.48078632354736,-31.901512145996094 518.3868532180786,32.82548522949219 " stroke-miterlimit="1" stroke-linejoin="round" stroke-width="2.3973" stroke="#88579E" fill="#88579E" class="triangle"/>
   <polygon id="svg_111" points="556.7448244094849,627.3634948730469 527.9767580032349,565.0334777832031 480.02985858917236,723.2565002441406 " stroke-miterlimit="1" stroke-linejoin="round" stroke-width="2.3973" stroke="#645EAA" fill="#645EAA" class="triangle"/>
   <polygon id="svg_112" points="513.5927858352661,234.20147705078125 429.6858034133911,222.21548461914062 379.34187030792236,373.24652099609375 " stroke-miterlimit="1" stroke-linejoin="round" stroke-width="2.3973" stroke="#A060A7" fill="#A060A7" class="triangle"/>
   <polygon id="svg_113" points="527.9767580032349,565.0334777832031 393.72578144073486,572.2234802246094 480.02985858917236,723.2565002441406 " stroke-miterlimit="1" stroke-linejoin="round" stroke-width="2.3973" stroke="#695CA8" fill="#695CA8" class="triangle"/>
   <polygon id="svg_114" points="544.7577638626099,179.0634765625 451.26179218292236,167.07550048828125 513.5927858352661,234.20147705078125 " stroke-miterlimit="1" stroke-linejoin="round" stroke-width="2.3973" stroke="#965EA6" fill="#965EA6" class="triangle"/>
   <polygon id="svg_115" points="539.9628419876099,797.5724792480469 480.02985858917236,723.2565002441406 381.73981952667236,847.9184875488281 " stroke-miterlimit="1" stroke-linejoin="round" stroke-width="2.3973" stroke="#595BA4" fill="#595BA4" class="triangle"/>
   <polygon id="svg_116" points="480.02985858917236,723.2565002441406 393.72578144073486,572.2234802246094 381.73981952667236,699.2825012207031 " stroke-miterlimit="1" stroke-linejoin="round" stroke-width="2.3973" stroke="#665AA4" fill="#665AA4" class="triangle"/>
   <polygon id="svg_117" points="518.3868532180786,32.82548522949219 374.54780292510986,85.56748962402344 451.26179218292236,167.07550048828125 " stroke-miterlimit="1" stroke-linejoin="round" stroke-width="2.3973" stroke="#9F5DA5" fill="#9F5DA5" class="triangle"/>
   <polygon id="svg_118" points="527.9767580032349,565.0334777832031 492.01582050323486,519.4834899902344 393.72578144073486,572.2234802246094 " stroke-miterlimit="1" stroke-linejoin="round" stroke-width="2.3973" stroke="#725DA8" fill="#725DA8" class="triangle"/>
   <polygon id="svg_119" points="513.5927858352661,234.20147705078125 451.26179218292236,167.07550048828125 429.6858034133911,222.21548461914062 " stroke-miterlimit="1" stroke-linejoin="round" stroke-width="2.3973" stroke="#A05FA6" fill="#A05FA6" class="triangle"/>
   <polygon id="svg_120" points="518.3868532180786,32.82548522949219 434.48078632354736,-31.901512145996094 374.54780292510986,85.56748962402344 " stroke-miterlimit="1" stroke-linejoin="round" stroke-width="2.3973" stroke="#985AA2" fill="#985AA2" class="triangle"/>
   <polygon id="svg_121" points="480.02985858917236,723.2565002441406 381.73981952667236,699.2825012207031 381.73981952667236,847.9184875488281 " stroke-miterlimit="1" stroke-linejoin="round" stroke-width="2.3973" stroke="#5D59A1" fill="#5D59A1" class="triangle"/>
   <polygon id="svg_122" points="492.01582050323486,519.4834899902344 379.34187030792236,373.24652099609375 393.72578144073486,572.2234802246094 " stroke-miterlimit="1" stroke-linejoin="round" stroke-width="2.3973" stroke="#7F5DA7" fill="#7F5DA7" class="triangle"/>
   <polygon id="svg_123" points="429.6858034133911,222.21548461914062 355.36884784698486,231.80447387695312 379.34187030792236,373.24652099609375 " stroke-miterlimit="1" stroke-linejoin="round" stroke-width="2.3973" stroke="#AB61A7" fill="#AB61A7" class="triangle"/>
   <polygon id="svg_124" points="472.8377809524536,-134.98751831054688 381.73981952667236,-187.72750854492188 434.48078632354736,-31.901512145996094 " stroke-miterlimit="1" stroke-linejoin="round" stroke-width="2.3973" stroke="#805396" fill="#805396" class="triangle"/>
   <polygon id="svg_125" points="393.72578144073486,572.2234802246094 379.34187030792236,373.24652099609375 271.46284198760986,517.0864562988281 " stroke-miterlimit="1" stroke-linejoin="round" stroke-width="2.3973" stroke="#855DA7" fill="#855DA7" class="triangle"/>
   <polygon id="svg_126" points="451.26179218292236,167.07550048828125 374.54780292510986,85.56748962402344 319.4088258743286,123.92449951171875 " stroke-miterlimit="1" stroke-linejoin="round" stroke-width="2.3973" stroke="#B060A6" fill="#B060A6" class="triangle"/>
   <polygon id="svg_127" points="451.26179218292236,167.07550048828125 355.36884784698486,231.80447387695312 429.6858034133911,222.21548461914062 " stroke-miterlimit="1" stroke-linejoin="round" stroke-width="2.3973" stroke="#AC62A7" fill="#AC62A7" class="triangle"/>
   <polygon id="svg_128" points="451.26179218292236,167.07550048828125 319.4088258743286,123.92449951171875 355.36884784698486,231.80447387695312 " stroke-miterlimit="1" stroke-linejoin="round" stroke-width="2.3973" stroke="#B362A7" fill="#B362A7" class="triangle"/>
   <polygon id="svg_129" points="379.34187030792236,373.24652099609375 257.07880878448486,430.7825012207031 271.46284198760986,517.0864562988281 " stroke-miterlimit="1" stroke-linejoin="round" stroke-width="2.3973" stroke="#905CA6" fill="#905CA6" class="triangle"/>
   <polygon id="svg_130" points="379.34187030792236,373.24652099609375 355.36884784698486,231.80447387695312 305.02583026885986,296.5325012207031 " stroke-miterlimit="1" stroke-linejoin="round" stroke-width="2.3973" stroke="#AC62A7" fill="#AC62A7" class="triangle"/>
   <polygon id="svg_131" points="434.48078632354736,-31.901512145996094 381.73981952667236,-187.72750854492188 211.52985858917236,-118.20552062988281 " stroke-miterlimit="1" stroke-linejoin="round" stroke-width="2.3973" stroke="#875398" fill="#875398" class="triangle"/>
   <polygon id="svg_132" points="434.48078632354736,-31.901512145996094 211.52985858917236,-118.20552062988281 312.21784687042236,40.017486572265625 " stroke-miterlimit="1" stroke-linejoin="round" stroke-width="2.3973" stroke="#98579E" fill="#98579E" class="triangle"/>
   <polygon id="svg_133" points="434.48078632354736,-31.901512145996094 312.21784687042236,40.017486572265625 374.54780292510986,85.56748962402344 " stroke-miterlimit="1" stroke-linejoin="round" stroke-width="2.3973" stroke="#A25BA4" fill="#A25BA4" class="triangle"/>
   <polygon id="svg_134" points="393.72578144073486,572.2234802246094 288.24384784698486,591.4034729003906 381.73981952667236,699.2825012207031 " stroke-miterlimit="1" stroke-linejoin="round" stroke-width="2.3973" stroke="#6F59A2" fill="#6F59A2" class="triangle"/>
   <polygon id="svg_135" points="379.34187030792236,373.24652099609375 305.02583026885986,296.5325012207031 302.6278200149536,334.8894958496094 " stroke-miterlimit="1" stroke-linejoin="round" stroke-width="2.3973" stroke="#A860A7" fill="#A860A7" class="triangle"/>
   <polygon id="svg_136" points="381.73981952667236,699.2825012207031 309.81977558135986,874.2875061035156 381.73981952667236,847.9184875488281 " stroke-miterlimit="1" stroke-linejoin="round" stroke-width="2.3973" stroke="#5A569B" fill="#5A569B" class="triangle"/>
   <polygon id="svg_137" points="355.36884784698486,231.80447387695312 302.6278200149536,277.353515625 305.02583026885986,296.5325012207031 " stroke-miterlimit="1" stroke-linejoin="round" stroke-width="2.3973" stroke="#B463A7" fill="#B463A7" class="triangle"/>
   <polygon id="svg_138" points="393.72578144073486,572.2234802246094 271.46284198760986,517.0864562988281 288.24384784698486,591.4034729003906 " stroke-miterlimit="1" stroke-linejoin="round" stroke-width="2.3973" stroke="#7859A1" fill="#7859A1" class="triangle"/>
   <polygon id="svg_139" points="381.73981952667236,699.2825012207031 288.24384784698486,591.4034729003906 269.06477069854736,603.3894958496094 " stroke-miterlimit="1" stroke-linejoin="round" stroke-width="2.3973" stroke="#6F579F" fill="#6F579F" class="triangle"/>
   <polygon id="svg_140" points="379.34187030792236,373.24652099609375 302.6278200149536,334.8894958496094 257.07880878448486,430.7825012207031 " stroke-miterlimit="1" stroke-linejoin="round" stroke-width="2.3973" stroke="#9E5EA6" fill="#9E5EA6" class="triangle"/>
   <polygon id="svg_141" points="381.73981952667236,699.2825012207031 120.43085956573486,704.0784606933594 309.81977558135986,874.2875061035156 " stroke-miterlimit="1" stroke-linejoin="round" stroke-width="2.3973" stroke="#5F5497" fill="#5F5497" class="triangle"/>
   <polygon id="svg_142" points="381.73981952667236,699.2825012207031 269.06477069854736,603.3894958496094 120.43085956573486,704.0784606933594 " stroke-miterlimit="1" stroke-linejoin="round" stroke-width="2.3973" stroke="#69559B" fill="#69559B" class="triangle"/>
   <polygon id="svg_143" points="309.81977558135986,874.2875061035156 120.43085956573486,704.0784606933594 197.1447877883911,886.2745056152344 " stroke-miterlimit="1" stroke-linejoin="round" stroke-width="2.3973" stroke="#585191" fill="#585191" class="triangle"/>
   <polygon id="svg_144" points="374.54780292510986,85.56748962402344 312.21784687042236,40.017486572265625 319.4088258743286,123.92449951171875 " stroke-miterlimit="1" stroke-linejoin="round" stroke-width="2.3973" stroke="#B15EA5" fill="#B15EA5" class="triangle"/>
   <polygon id="svg_145" points="355.36884784698486,231.80447387695312 319.4088258743286,123.92449951171875 218.72077655792236,195.84548950195312 " stroke-miterlimit="1" stroke-linejoin="round" stroke-width="2.3973" stroke="#BD63A7" fill="#BD63A7" class="triangle"/>
   <polygon id="svg_146" points="355.36884784698486,231.80447387695312 218.72077655792236,195.84548950195312 302.6278200149536,277.353515625 " stroke-miterlimit="1" stroke-linejoin="round" stroke-width="2.3973" stroke="#BA63A7" fill="#BA63A7" class="triangle"/>
   <polygon id="svg_147" points="319.4088258743286,123.92449951171875 218.72077655792236,138.3074951171875 218.72077655792236,195.84548950195312 " stroke-miterlimit="1" stroke-linejoin="round" stroke-width="2.3973" stroke="#BD62A6" fill="#BD62A6" class="triangle"/>
   <polygon id="svg_148" points="319.4088258743286,123.92449951171875 312.21784687042236,40.017486572265625 223.51679706573486,119.12948608398438 " stroke-miterlimit="1" stroke-linejoin="round" stroke-width="2.3973" stroke="#B660A5" fill="#B660A5" class="triangle"/>
   <polygon id="svg_149" points="288.24384784698486,591.4034729003906 271.46284198760986,517.0864562988281 249.88679218292236,560.2374572753906 " stroke-miterlimit="1" stroke-linejoin="round" stroke-width="2.3973" stroke="#7A589F" fill="#7A589F" class="triangle"/>
   <polygon id="svg_150" points="312.21784687042236,40.017486572265625 211.52985858917236,-118.20552062988281 130.02082538604736,-72.65650939941406 " stroke-miterlimit="1" stroke-linejoin="round" stroke-width="2.3973" stroke="#96559C" fill="#96559C" class="triangle"/>
   <polygon id="svg_151" points="312.21784687042236,40.017486572265625 130.02082538604736,-72.65650939941406 201.93977069854736,99.95050048828125 " stroke-miterlimit="1" stroke-linejoin="round" stroke-width="2.3973" stroke="#A559A3" fill="#A559A3" class="triangle"/>
   <polygon id="svg_152" points="319.4088258743286,123.92449951171875 223.51679706573486,119.12948608398438 218.72077655792236,138.3074951171875 " stroke-miterlimit="1" stroke-linejoin="round" stroke-width="2.3973" stroke="#BB61A6" fill="#BB61A6" class="triangle"/>
   <polygon id="svg_153" points="312.21784687042236,40.017486572265625 201.93977069854736,99.95050048828125 223.51679706573486,119.12948608398438 " stroke-miterlimit="1" stroke-linejoin="round" stroke-width="2.3973" stroke="#B55EA5" fill="#B55EA5" class="triangle"/>
   <polygon id="svg_154" points="305.02583026885986,296.5325012207031 137.21284198760986,354.0685119628906 302.6278200149536,334.8894958496094 " stroke-miterlimit="1" stroke-linejoin="round" stroke-width="2.3973" stroke="#AA5FA6" fill="#AA5FA6" class="triangle"/>
   <polygon id="svg_155" points="305.02583026885986,296.5325012207031 302.6278200149536,277.353515625 137.21284198760986,354.0685119628906 " stroke-miterlimit="1" stroke-linejoin="round" stroke-width="2.3973" stroke="#AF60A6" fill="#AF60A6" class="triangle"/>
   <polygon id="svg_156" points="302.6278200149536,277.353515625 218.72077655792236,195.84548950195312 137.21284198760986,354.0685119628906 " stroke-miterlimit="1" stroke-linejoin="round" stroke-width="2.3973" stroke="#B35FA5" fill="#B35FA5" class="triangle"/>
   <polygon id="svg_157" points="302.6278200149536,334.8894958496094 137.21284198760986,354.0685119628906 257.07880878448486,430.7825012207031 " stroke-miterlimit="1" stroke-linejoin="round" stroke-width="2.3973" stroke="#9F5CA5" fill="#9F5CA5" class="triangle"/>
   <polygon id="svg_158" points="288.24384784698486,591.4034729003906 249.88679218292236,560.2374572753906 269.06477069854736,603.3894958496094 " stroke-miterlimit="1" stroke-linejoin="round" stroke-width="2.3973" stroke="#75579E" fill="#75579E" class="triangle"/>
   <polygon id="svg_159" points="269.06477069854736,603.3894958496094 249.88679218292236,560.2374572753906 120.43085956573486,704.0784606933594 " stroke-miterlimit="1" stroke-linejoin="round" stroke-width="2.3973" stroke="#6F5599" fill="#6F5599" class="triangle"/>
   <polygon id="svg_160" points="271.46284198760986,517.0864562988281 257.07880878448486,430.7825012207031 82.07276630401611,526.6764831542969 " stroke-miterlimit="1" stroke-linejoin="round" stroke-width="2.3973" stroke="#8558A0" fill="#8558A0" class="triangle"/>
   <polygon id="svg_161" points="271.46284198760986,517.0864562988281 82.07276630401611,526.6764831542969 249.88679218292236,560.2374572753906 " stroke-miterlimit="1" stroke-linejoin="round" stroke-width="2.3973" stroke="#7C569D" fill="#7C569D" class="triangle"/>
   <polygon id="svg_162" points="201.93977069854736,99.95050048828125 130.02082538604736,-72.65650939941406 158.7878541946411,102.34848022460938 " stroke-miterlimit="1" stroke-linejoin="round" stroke-width="2.3973" stroke="#A558A2" fill="#A558A2" class="triangle"/>
   <polygon id="svg_163" points="249.88679218292236,560.2374572753906 94.05982685089111,687.2974548339844 120.43085956573486,704.0784606933594 " stroke-miterlimit="1" stroke-linejoin="round" stroke-width="2.3973" stroke="#6A5295" fill="#6A5295" class="triangle"/>
   <polygon id="svg_164" points="249.88679218292236,560.2374572753906 55.70283222198486,596.1974792480469 94.05982685089111,687.2974548339844 " stroke-miterlimit="1" stroke-linejoin="round" stroke-width="2.3973" stroke="#6E5397" fill="#6E5397" class="triangle"/>
   <polygon id="svg_165" points="249.88679218292236,560.2374572753906 82.07276630401611,526.6764831542969 55.70283222198486,596.1974792480469 " stroke-miterlimit="1" stroke-linejoin="round" stroke-width="2.3973" stroke="#755399" fill="#755399" class="triangle"/>
   <polygon id="svg_166" points="257.07880878448486,430.7825012207031 137.21284198760986,354.0685119628906 82.07276630401611,526.6764831542969 " stroke-miterlimit="1" stroke-linejoin="round" stroke-width="2.3973" stroke="#8D59A0" fill="#8D59A0" class="triangle"/>
   <polygon id="svg_167" points="158.7878541946411,102.34848022460938 130.02082538604736,-72.65650939941406 72.48481464385986,4.0584869384765625 " stroke-miterlimit="1" stroke-linejoin="round" stroke-width="2.3973" stroke="#98559D" fill="#98559D" class="triangle"/>
   <polygon id="svg_168" points="218.72077655792236,195.84548950195312 125.22474384307861,179.0634765625 137.21284198760986,354.0685119628906 " stroke-miterlimit="1" stroke-linejoin="round" stroke-width="2.3973" stroke="#AF5DA5" fill="#AF5DA5" class="triangle"/>
   <polygon id="svg_169" points="218.72077655792236,195.84548950195312 218.72077655792236,138.3074951171875 125.22474384307861,179.0634765625 " stroke-miterlimit="1" stroke-linejoin="round" stroke-width="2.3973" stroke="#B75EA5" fill="#B75EA5" class="triangle"/>
   <polygon id="svg_170" points="223.51679706573486,119.12948608398438 201.93977069854736,99.95050048828125 218.72077655792236,138.3074951171875 " stroke-miterlimit="1" stroke-linejoin="round" stroke-width="2.3973" stroke="#B75EA5" fill="#B75EA5" class="triangle"/>
   <polygon id="svg_171" points="197.1447877883911,886.2745056152344 120.43085956573486,704.0784606933594 26.934765815734863,886.2745056152344 " stroke-miterlimit="1" stroke-linejoin="round" stroke-width="2.3973" stroke="#584E8E" fill="#584E8E" class="triangle"/>
   <polygon id="svg_172" points="218.72077655792236,138.3074951171875 158.7878541946411,102.34848022460938 125.22474384307861,179.0634765625 " stroke-miterlimit="1" stroke-linejoin="round" stroke-width="2.3973" stroke="#B25CA4" fill="#B25CA4" class="triangle"/>
   <polygon id="svg_173" points="218.72077655792236,138.3074951171875 201.93977069854736,99.95050048828125 158.7878541946411,102.34848022460938 " stroke-miterlimit="1" stroke-linejoin="round" stroke-width="2.3973" stroke="#B35DA4" fill="#B35DA4" class="triangle"/>
   <polygon id="svg_174" points="137.21284198760986,354.0685119628906 125.22474384307861,179.0634765625 62.89484882354736,186.2554931640625 " stroke-miterlimit="1" stroke-linejoin="round" stroke-width="2.3973" stroke="#A55AA4" fill="#A55AA4" class="triangle"/>
   <polygon id="svg_175" points="120.43085956573486,704.0784606933594 -40.19023418426514,819.1484680175781 26.934765815734863,886.2745056152344 " stroke-miterlimit="1" stroke-linejoin="round" stroke-width="2.3973" stroke="#584C8B" fill="#584C8B" class="triangle"/>
   <polygon id="svg_176" points="137.21284198760986,354.0685119628906 -9.025195121765137,370.8485107421875 82.07276630401611,526.6764831542969 " stroke-miterlimit="1" stroke-linejoin="round" stroke-width="2.3973" stroke="#87549C" fill="#87549C" class="triangle"/>
   <polygon id="svg_177" points="158.7878541946411,102.34848022460938 91.66279315948486,133.51348876953125 125.22474384307861,179.0634765625 " stroke-miterlimit="1" stroke-linejoin="round" stroke-width="2.3973" stroke="#A95AA3" fill="#A95AA3" class="triangle"/>
   <polygon id="svg_178" points="158.7878541946411,102.34848022460938 72.48481464385986,4.0584869384765625 91.66279315948486,133.51348876953125 " stroke-miterlimit="1" stroke-linejoin="round" stroke-width="2.3973" stroke="#A057A2" fill="#A057A2" class="triangle"/>
   <polygon id="svg_179" points="120.43085956573486,704.0784606933594 94.05982685089111,687.2974548339844 -40.19023418426514,819.1484680175781 " stroke-miterlimit="1" stroke-linejoin="round" stroke-width="2.3973" stroke="#5F4E8E" fill="#5F4E8E" class="triangle"/>
   <polygon id="svg_180" points="137.21284198760986,354.0685119628906 62.89484882354736,186.2554931640625 -42.58818340301514,265.3675231933594 " stroke-miterlimit="1" stroke-linejoin="round" stroke-width="2.3973" stroke="#97569F" fill="#97569F" class="triangle"/>
   <polygon id="svg_181" points="137.21284198760986,354.0685119628906 -42.58818340301514,265.3675231933594 -9.025195121765137,370.8485107421875 " stroke-miterlimit="1" stroke-linejoin="round" stroke-width="2.3973" stroke="#8C549C" fill="#8C549C" class="triangle"/>
   <polygon id="svg_182" points="91.66279315948486,133.51348876953125 72.48481464385986,4.0584869384765625 31.729809761047363,116.73249816894531 " stroke-miterlimit="1" stroke-linejoin="round" stroke-width="2.3973" stroke="#99559E" fill="#99559E" class="triangle"/>
   <polygon id="svg_183" points="94.05982685089111,687.2974548339844 55.70283222198486,596.1974792480469 41.31886005401611,615.3774719238281 " stroke-miterlimit="1" stroke-linejoin="round" stroke-width="2.3973" stroke="#685092" fill="#685092" class="triangle"/>
   <polygon id="svg_184" points="130.02082538604736,-72.65650939941406 86.86774921417236,-122.99951171875 72.48481464385986,4.0584869384765625 " stroke-miterlimit="1" stroke-linejoin="round" stroke-width="2.3973" stroke="#8A5198" fill="#8A5198" class="triangle"/>
   <polygon id="svg_185" points="125.22474384307861,179.0634765625 91.66279315948486,133.51348876953125 62.89484882354736,186.2554931640625 " stroke-miterlimit="1" stroke-linejoin="round" stroke-width="2.3973" stroke="#A358A2" fill="#A358A2" class="triangle"/>
   <polygon id="svg_186" points="86.86774921417236,-122.99951171875 2.9618654251098633,-15.120513916015625 72.48481464385986,4.0584869384765625 " stroke-miterlimit="1" stroke-linejoin="round" stroke-width="2.3973" stroke="#885097" fill="#885097" class="triangle"/>
   <polygon id="svg_187" points="72.48481464385986,4.0584869384765625 24.537793159484863,8.852493286132812 31.729809761047363,116.73249816894531 " stroke-miterlimit="1" stroke-linejoin="round" stroke-width="2.3973" stroke="#90539B" fill="#90539B" class="triangle"/>
   <polygon id="svg_188" points="82.07276630401611,526.6764831542969 -9.025195121765137,370.8485107421875 -18.614184379577637,548.2514953613281 " stroke-miterlimit="1" stroke-linejoin="round" stroke-width="2.3973" stroke="#785196" fill="#785196" class="triangle"/>
   <polygon id="svg_189" points="94.05982685089111,687.2974548339844 41.31886005401611,615.3774719238281 -40.19023418426514,819.1484680175781 " stroke-miterlimit="1" stroke-linejoin="round" stroke-width="2.3973" stroke="#604E8E" fill="#604E8E" class="triangle"/>
   <polygon id="svg_190" points="91.66279315948486,133.51348876953125 31.729809761047363,116.73249816894531 62.89484882354736,186.2554931640625 " stroke-miterlimit="1" stroke-linejoin="round" stroke-width="2.3973" stroke="#9C569F" fill="#9C569F" class="triangle"/>
   <polygon id="svg_191" points="72.48481464385986,4.0584869384765625 2.9618654251098633,-15.120513916015625 24.537793159484863,8.852493286132812 " stroke-miterlimit="1" stroke-linejoin="round" stroke-width="2.3973" stroke="#8A5198" fill="#8A5198" class="triangle"/>
   <polygon id="svg_192" points="86.86774921417236,-122.99951171875 29.332776069641113,-199.71450805664062 2.9618654251098633,-15.120513916015625 " stroke-miterlimit="1" stroke-linejoin="round" stroke-width="2.3973" stroke="#7D4D93" fill="#7D4D93" class="triangle"/>
   <polygon id="svg_193" points="82.07276630401611,526.6764831542969 -18.614184379577637,548.2514953613281 55.70283222198486,596.1974792480469 " stroke-miterlimit="1" stroke-linejoin="round" stroke-width="2.3973" stroke="#715094" fill="#715094" class="triangle"/>
   <polygon id="svg_194" points="26.962475776672363,-202.08489990234375 -95.30156230926514,-211.67388916015625 0.5915040969848633,-17.490882873535156 " stroke-miterlimit="1" stroke-linejoin="round" stroke-width="2.3973" stroke="#754B90" fill="#754B90" class="triangle"/>
   <polygon id="svg_195" points="41.31886005401611,615.3774719238281 -203.20817852020264,692.0914611816406 -40.19023418426514,819.1484680175781 " stroke-miterlimit="1" stroke-linejoin="round" stroke-width="2.3973" stroke="#5D4B8A" fill="#5D4B8A" class="triangle"/>
   <polygon id="svg_196" points="62.89484882354736,186.2554931640625 31.729809761047363,116.73249816894531 -42.58818340301514,265.3675231933594 " stroke-miterlimit="1" stroke-linejoin="round" stroke-width="2.3973" stroke="#93549D" fill="#93549D" class="triangle"/>
   <polygon id="svg_197" points="-9.025195121765137,370.8485107421875 -42.58818340301514,265.3675231933594 -61.76616191864014,327.697509765625 " stroke-miterlimit="1" stroke-linejoin="round" stroke-width="2.3973" stroke="#835198" fill="#835198" class="triangle"/>
   <polygon id="svg_198" points="2.9618654251098633,-15.120513916015625 -92.93120098114014,-209.30352783203125 -32.99821758270264,-3.133514404296875 " stroke-miterlimit="1" stroke-linejoin="round" stroke-width="2.3973" stroke="#794C92" fill="#794C92" class="triangle"/>
   <polygon id="svg_199" points="31.729809761047363,116.73249816894531 -116.90520000457764,198.24148559570312 -42.58818340301514,265.3675231933594 " stroke-miterlimit="1" stroke-linejoin="round" stroke-width="2.3973" stroke="#875199" fill="#875199" class="triangle"/>
   <polygon id="svg_200" points="31.729809761047363,116.73249816894531 -83.34221172332764,104.7454833984375 -116.90520000457764,198.24148559570312 " stroke-miterlimit="1" stroke-linejoin="round" stroke-width="2.3973" stroke="#865097" fill="#865097" class="triangle"/>
   <polygon id="svg_201" points="41.31886005401611,615.3774719238281 -181.63212871551514,612.9794616699219 -203.20817852020264,692.0914611816406 " stroke-miterlimit="1" stroke-linejoin="round" stroke-width="2.3973" stroke="#604B8A" fill="#604B8A" class="triangle"/>
   <polygon id="svg_202" points="55.70283222198486,596.1974792480469 -18.614184379577637,548.2514953613281 41.31886005401611,615.3774719238281 " stroke-miterlimit="1" stroke-linejoin="round" stroke-width="2.3973" stroke="#6C4F92" fill="#6C4F92" class="triangle"/>
   <polygon id="svg_203" points="-32.99821758270264,-3.133514404296875 -92.93120098114014,-209.30352783203125 -160.05620098114014,-77.45051574707031 " stroke-miterlimit="1" stroke-linejoin="round" stroke-width="2.3973" stroke="#734A90" fill="#734A90" class="triangle"/>
   <polygon id="svg_204" points="-9.025195121765137,370.8485107421875 -131.28813457489014,490.7165222167969 -18.614184379577637,548.2514953613281 " stroke-miterlimit="1" stroke-linejoin="round" stroke-width="2.3973" stroke="#724F92" fill="#724F92" class="triangle"/>
   <polygon id="svg_205" points="31.729809761047363,116.73249816894531 24.537793159484863,8.852493286132812 -32.99821758270264,-3.133514404296875 " stroke-miterlimit="1" stroke-linejoin="round" stroke-width="2.3973" stroke="#8A5199" fill="#8A5199" class="triangle"/>
   <polygon id="svg_206" points="31.729809761047363,116.73249816894531 -32.99821758270264,-3.133514404296875 -83.34221172332764,104.7454833984375 " stroke-miterlimit="1" stroke-linejoin="round" stroke-width="2.3973" stroke="#885098" fill="#885098" class="triangle"/>
   <polygon id="svg_207" points="41.31886005401611,615.3774719238281 -18.614184379577637,548.2514953613281 -181.63212871551514,612.9794616699219 " stroke-miterlimit="1" stroke-linejoin="round" stroke-width="2.3973" stroke="#674D8E" fill="#674D8E" class="triangle"/>
   <polygon id="svg_208" points="24.537793159484863,8.852493286132812 2.9618654251098633,-15.120513916015625 -32.99821758270264,-3.133514404296875 " stroke-miterlimit="1" stroke-linejoin="round" stroke-width="2.3973" stroke="#864F97" fill="#864F97" class="triangle"/>
   <polygon id="svg_209" points="-18.614184379577637,548.2514953613281 -148.07011699676514,538.6634826660156 -181.63212871551514,612.9794616699219 " stroke-miterlimit="1" stroke-linejoin="round" stroke-width="2.3973" stroke="#654B8C" fill="#654B8C" class="triangle"/>
   <polygon id="svg_210" points="-9.025195121765137,370.8485107421875 -169.64616680145264,409.2065124511719 -131.28813457489014,490.7165222167969 " stroke-miterlimit="1" stroke-linejoin="round" stroke-width="2.3973" stroke="#714D91" fill="#714D91" class="triangle"/>
   <polygon id="svg_211" points="-9.025195121765137,370.8485107421875 -61.76616191864014,327.697509765625 -169.64616680145264,409.2065124511719 " stroke-miterlimit="1" stroke-linejoin="round" stroke-width="2.3973" stroke="#784F94" fill="#784F94" class="triangle"/>
   <polygon id="svg_212" points="-18.614184379577637,548.2514953613281 -131.28813457489014,490.7165222167969 -148.07011699676514,538.6634826660156 " stroke-miterlimit="1" stroke-linejoin="round" stroke-width="2.3973" stroke="#6A4C8E" fill="#6A4C8E" class="triangle"/>
   <polygon id="svg_213" points="-32.99821758270264,-3.133514404296875 -150.46721172332764,61.59349060058594 -83.34221172332764,104.7454833984375 " stroke-miterlimit="1" stroke-linejoin="round" stroke-width="2.3973" stroke="#7D4D94" fill="#7D4D94" class="triangle"/>
   <polygon id="svg_214" points="-32.99821758270264,-3.133514404296875 -160.05620098114014,-77.45051574707031 -150.46721172332764,61.59349060058594 " stroke-miterlimit="1" stroke-linejoin="round" stroke-width="2.3973" stroke="#774B92" fill="#774B92" class="triangle"/>
   <polygon id="svg_215" points="-40.19023418426514,819.1484680175781 -203.20817852020264,692.0914611816406 -267.93620586395264,783.1894836425781 " stroke-miterlimit="1" stroke-linejoin="round" stroke-width="2.3973" stroke="#554885" fill="#554885" class="triangle"/>
   <polygon id="svg_216" points="-42.58818340301514,265.3675231933594 -116.90520000457764,198.24148559570312 -61.76616191864014,327.697509765625 " stroke-miterlimit="1" stroke-linejoin="round" stroke-width="2.3973" stroke="#815097" fill="#815097" class="triangle"/>
  </g>
 </g>
</svg>