<?xml version="1.0" encoding="utf-8"?>
<!-- Generator: Adobe Illustrator 18.0.0, SVG Export Plug-In . SVG Version: 6.00 Build 0)  -->
<!DOCTYPE svg PUBLIC "-//W3C//DTD SVG 1.1//EN" "http://www.w3.org/Graphics/SVG/1.1/DTD/svg11.dtd">
<svg version="1.1" id="Layer_1" xmlns="http://www.w3.org/2000/svg" xmlns:xlink="http://www.w3.org/1999/xlink" x="0px" y="0px"
	 viewBox="0 0 560 960" enable-background="new 0 0 560 960" xml:space="preserve">
<g>
	<defs>
		<rect id="SVGID_1_" y="-13" width="560" height="973"/>
	</defs>
	<clipPath id="SVGID_2_">
		<use xlink:href="#SVGID_1_"  overflow="visible"/>
	</clipPath>
	<g clip-path="url(#SVGID_2_)">
		<rect x="-242.5" y="-8.5" fill="#5B2719" width="1223.2" height="878.4"/>
		<g>
			<polygon fill="#FADE5A" points="275.6,102 286.4,224 387,138.6 			"/>
			<polygon fill="#0D2626" points="964.1,613.5 949.5,728.2 980.7,870 			"/>
			<polygon fill="#4A2115" points="-175.4,571.8 -199,524.3 -174.8,586.5 			"/>
			<polygon fill="#112426" points="949.5,728.2 882,745 980.7,870 			"/>
			<polygon fill="#112C2D" points="882,745 672.4,741.4 980.7,870 			"/>
			<polygon fill="#3A1814" points="-242.3,428.9 -242.3,870 -219.4,479.8 			"/>
			<polygon fill="#441F14" points="-169.7,592.3 -167.8,711.4 -139.4,644.9 			"/>
			<polygon fill="#7F953B" points="-34,101.3 -128,140.8 -6,248.9 			"/>
			<polygon fill="#495325" points="-242.3,-6.9 -242.3,431.5 -202.3,42.2 			"/>
			<polygon fill="#778034" points="-128,140.8 -62,341.7 -6,248.9 			"/>
			<polygon fill="#3A1613" points="-219.4,479.8 -242.3,870 -199,524.3 			"/>
			<polygon fill="#637431" points="-202.3,40.6 -127.6,142.5 -33,101.6 			"/>
			<polygon fill="#4A1F14" points="-175.4,571.8 -174.8,586.5 -169.7,592.3 			"/>
			<polygon fill="#4C1C16" points="-111.1,701.9 -90.7,747.2 35.4,632.5 			"/>
			<polygon fill="#441A14" points="-169.7,592.3 -174.8,586.5 -167.8,711.4 			"/>
			<polygon fill="#341613" points="-199,524.3 -242.3,870 -167.8,711.4 			"/>
			<polygon fill="#451C15" points="-174.8,586.5 -199,524.3 -167.8,711.4 			"/>
			<polygon fill="#4A3217" points="-242.3,428.9 -220.2,480.2 -131.4,459.7 			"/>
			<polygon fill="#66301A" points="4.1,492.2 -139.4,644.9 35.4,632.5 			"/>
			<polygon fill="#4F2D18" points="-219.4,479.8 -199,524.3 -132.1,459.3 			"/>
			<polygon fill="#512916" points="-199,524.3 -175.4,571.8 -132.1,459.3 			"/>
			<polygon fill="#532617" points="-175.4,571.8 -169.7,592.3 -132.1,459.3 			"/>
			<polygon fill="#4F5A28" points="-203,39.5 -243,430.4 -127.6,141.3 			"/>
			<polygon fill="#411613" points="-139.4,644.9 -167.8,711.4 -111.1,701.9 			"/>
			<polygon fill="#3E1613" points="-111.1,701.9 -167.8,711.4 -90.7,747.2 			"/>
			<polygon fill="#301313" points="-167.8,711.4 -242.3,870 -90.7,747.2 			"/>
			<polygon fill="#511F16" points="-139.4,644.9 -111.1,701.9 35.4,632.5 			"/>
			<polygon fill="#58491B" points="-242.3,428.9 -132.1,459.3 -62,341.7 			"/>
			<polygon fill="#575F28" points="-128,140.8 -242.3,428.9 -62,341.7 			"/>
			<polygon fill="#735321" points="-62,341.7 -132.1,459.3 4.1,492.2 			"/>
			<polygon fill="#5E2A1C" points="62.6,748.4 151.4,784.5 180.7,633.9 			"/>
			<polygon fill="#311414" points="-90.7,747.2 -242.3,870 -62,793.2 			"/>
			<polygon fill="#4F1E18" points="35.4,632.5 -90.7,747.2 62.6,748.4 			"/>
			<polygon fill="#653219" points="-132.1,459.3 -169.7,592.3 4.1,492.2 			"/>
			<polygon fill="#5B2719" points="-169.7,592.3 -139.4,644.9 4.1,492.2 			"/>
			<polygon fill="#F8DB56" points="273.7,103.5 275.6,102 284.5,91.1 			"/>
			<polygon fill="#45131A" points="-90.7,747.2 -62,793.2 62.6,748.4 			"/>
			<polygon fill="#65321C" points="35.4,632.5 62.6,748.4 180.7,633.9 			"/>
			<polygon fill="#B5A131" points="-6,248.9 77.5,326.4 102.9,209.4 			"/>
			<polygon fill="#5D7031" points="-242.3,-6.9 -202.3,42.2 53.3,66.9 			"/>
			<polygon fill="#7A8637" points="-202.3,41.7 -34,101.3 53.3,66.6 			"/>
			<polygon fill="#9F752B" points="77.5,326.4 4.1,492.2 143.7,478.3 			"/>
			<polygon fill="#907E2F" points="-6,248.9 -62,341.7 77.5,326.4 			"/>
			<polygon fill="#8A6C29" points="-62,341.7 4.1,492.2 77.5,326.4 			"/>
			<polygon fill="#834B20" points="143.7,478.3 35.4,632.5 180.7,633.9 			"/>
			<polygon fill="#A6A135" points="-34,101.3 -6,248.9 102.9,209.4 			"/>
			<polygon fill="#B1AC35" points="53.3,66.9 -34,101.3 102.9,209.4 			"/>
			<polygon fill="#837830" points="4.1,492.2 35.4,632.5 143.7,478.3 			"/>
			<polygon fill="#D49C4C" points="360.9,387.7 446.3,490.7 503.6,353.4 			"/>
			<polygon fill="#58211D" points="304.2,750.1 151.4,784.5 369.2,870 			"/>
			<polygon fill="#4C1C18" points="62.6,748.4 -62,793.2 151.4,784.5 			"/>
			<polygon fill="#CD8B36" points="227.7,352.9 143.7,478.3 238.6,469.5 			"/>
			<polygon fill="#FAD148" points="53.3,66.9 273.7,103.5 284.5,91.1 			"/>
			<polygon fill="#E3C23B" points="53.3,66.9 102.9,209.4 206.8,178 			"/>
			<polygon fill="#C89733" points="77.5,326.4 143.7,478.3 227.7,352.9 			"/>
			<polygon fill="#DBB239" points="102.9,209.4 77.5,326.4 227.7,352.9 			"/>
			<polygon fill="#F5C247" points="206.8,178 102.9,209.4 227.7,352.9 			"/>
			<polygon fill="#F8D148" points="53.3,66.9 206.8,178 231.6,146.6 			"/>
			<polygon fill="#FACF47" points="53.3,66.9 284.5,91.1 369.2,-6.9 			"/>
			<polygon fill="#B46030" points="238.6,469.5 143.7,478.3 248.8,567.5 			"/>
			<polygon fill="#9A5B25" points="143.7,478.3 180.7,633.9 248.8,567.5 			"/>
			<polygon fill="#4C1E18" points="151.4,784.5 -62,793.2 369.2,870 			"/>
			<polygon fill="#B2A733" points="-242.3,-6.9 53.3,66.9 369.2,-6.9 			"/>
			<polygon fill="#1A2E34" points="672.4,741.4 586.4,778.6 980.7,870 			"/>
			<polygon fill="#FAD148" points="53.3,66.9 231.6,146.6 273.7,103.5 			"/>
			<polygon fill="#F8BD50" points="286.4,224 227.7,352.9 360.9,387.7 			"/>
			<polygon fill="#FBDC59" points="275.6,102 273.7,103.5 286.4,224 			"/>
			<polygon fill="#FACE4E" points="206.8,178 227.7,352.9 286.4,224 			"/>
			<polygon fill="#F9D952" points="231.6,146.6 206.8,178 286.4,224 			"/>
			<polygon fill="#F9DA54" points="273.7,103.5 231.6,146.6 286.4,224 			"/>
			<polygon fill="#823E25" points="248.8,567.5 180.7,633.9 304.2,750.1 			"/>
			<polygon fill="#692E1F" points="180.7,633.9 151.4,784.5 304.2,750.1 			"/>
			<polygon fill="#B96E2E" points="238.6,469.5 248.8,567.5 321.6,492.3 			"/>
			<polygon fill="#F9DA55" points="284.5,91.1 275.6,102 387,138.6 			"/>
			<polygon fill="#E89C43" points="227.7,352.9 238.6,469.5 360.9,387.7 			"/>
			<polygon fill="#D79741" points="238.6,469.5 321.6,492.3 360.9,387.7 			"/>
			<polygon fill="#252833" points="585.1,777 367.2,870 980.7,870 			"/>
			<polygon fill="#FDD455" points="369.2,-6.9 284.5,91.1 387,138.6 			"/>
			<polygon fill="#A45F32" points="321.6,492.3 248.8,567.5 423.3,607.6 			"/>
			<polygon fill="#112C2D" points="980.7,431.5 964.1,613.5 980.7,870 			"/>
			<polygon fill="#3C1416" points="-62,793.2 -242.3,870 369.2,870 			"/>
			<polygon fill="#FBD460" points="387,138.6 403,289.1 464.7,183.8 			"/>
			<polygon fill="#F3B557" points="403,289.1 360.9,387.7 503.6,353.4 			"/>
			<polygon fill="#FBD761" points="387,138.6 286.4,224 403,289.1 			"/>
			<polygon fill="#F9C759" points="286.4,224 360.9,387.7 403,289.1 			"/>
			<polygon fill="#602720" points="304.2,750.1 369.2,870 399.1,723.8 			"/>
			<polygon fill="#753829" points="304.2,750.1 399.1,723.8 423.3,607.6 			"/>
			<polygon fill="#2E3E3E" points="638,684.4 586.4,778.6 672.4,741.4 			"/>
			<polygon fill="#8B4329" points="248.8,567.5 304.2,750.1 423.3,607.6 			"/>
			<polygon fill="#AB8D47" points="503.6,353.4 446.3,490.7 538.6,478.3 			"/>
			<polygon fill="#A96D38" points="321.6,492.3 423.3,607.6 446.3,490.7 			"/>
			<polygon fill="#D0883F" points="360.9,387.7 321.6,492.3 446.3,490.7 			"/>
			<polygon fill="#F8C25F" points="548.8,112.2 464.7,183.8 553.9,236.5 			"/>
			<polygon fill="#F7C55E" points="464.7,183.8 403,289.1 503.6,353.4 			"/>
			<polygon fill="#8A644C" points="538.6,478.3 446.3,490.7 555.8,550.6 			"/>
			<polygon fill="#8F683D" points="446.3,490.7 423.3,607.6 555.8,550.6 			"/>
			<polygon fill="#57292A" points="399.1,723.8 369.2,870 507.4,728.9 			"/>
			<polygon fill="#6C3C35" points="423.3,607.6 398.5,724.5 509.5,729.7 			"/>
			<polygon fill="#EAC35B" points="464.7,183.8 503.6,353.4 553.9,236.5 			"/>
			<polygon fill="#F8CB55" points="369.2,-6.9 387,138.6 548.8,112.2 			"/>
			<polygon fill="#F9CA57" points="387,138.6 464.7,183.8 548.8,112.2 			"/>
			<polygon fill="#0E2E2E" points="929.1,625.9 882,745 949.5,728.2 			"/>
			<polygon fill="#462633" points="507.4,728.9 369.2,870 586.4,778.6 			"/>
			<polygon fill="#735F44" points="706.2,230.6 799.8,306.6 838.6,129.8 			"/>
			<polygon fill="#6D4C3E" points="423.3,607.6 507.4,728.9 555.8,550.6 			"/>
			<polygon fill="#77694C" points="773.7,95.4 706.2,230.6 838.6,129.8 			"/>
			<polygon fill="#B6AA59" points="553.9,236.5 626.5,289.1 630.6,168.1 			"/>
			<polygon fill="#BABE68" points="548.8,112.2 553.9,236.5 630.6,168.1 			"/>
			<polygon fill="#416C49" points="731.6,410.4 676.6,494 762.2,599.6 			"/>
			<polygon fill="#BFAF51" points="553.9,236.5 503.6,353.4 626.5,289.1 			"/>
			<polygon fill="#678743" points="692.8,335.1 638,423.5 731.6,410.4 			"/>
			<polygon fill="#9A9E4A" points="626.5,289.1 503.6,353.4 638,423.5 			"/>
			<polygon fill="#938E47" points="503.6,353.4 538.6,478.3 638,423.5 			"/>
			<polygon fill="#504745" points="555.8,550.6 507.4,728.9 638,684.4 			"/>
			<polygon fill="#58223A" points="507.4,728.9 586.4,778.6 638,684.4 			"/>
			<polygon fill="#4E5F49" points="555.8,550.6 638,684.4 676.6,494 			"/>
			<polygon fill="#284641" points="638,684.5 758.5,706.3 764.3,597.2 			"/>
			<polygon fill="#597E43" points="638,423.5 676.6,494 731.6,410.4 			"/>
			<polygon fill="#6E7448" points="537.2,476.9 554.9,551 678.7,492.9 			"/>
			<polygon fill="#6E8046" points="638,423.5 538.6,478.3 676.6,494 			"/>
			<polygon fill="#828F49" points="626.5,289.1 692.8,335.1 706.2,230.6 			"/>
			<polygon fill="#5CB858" points="626.5,289.1 638,423.5 692.8,335.1 			"/>
			<polygon fill="#969A56" points="630.6,168.1 626.5,289.1 706.2,230.6 			"/>
			<polygon fill="#67A46A" points="630.6,168.1 706.2,230.6 773.7,95.4 			"/>
			<polygon fill="#355B49" points="676.6,494 638,684.4 762.2,599.6 			"/>
			<polygon fill="#183837" points="825.9,674.9 756.5,705.6 882,745 			"/>
			<polygon fill="#1B4139" points="899,487.7 825.9,674.9 929.1,625.9 			"/>
			<polygon fill="#293D3E" points="638,684.4 672.4,741.4 756.5,705.6 			"/>
			<polygon fill="#143534" points="825.9,674.9 882,745 929.1,625.9 			"/>
			<polygon fill="#FADE5A" points="369.2,-6.9 548.8,112.2 773.7,95.4 			"/>
			<polygon fill="#AB9358" points="548.8,112.2 630.6,168.1 773.7,95.4 			"/>
			<polygon fill="#698048" points="706.2,230.6 692.8,335.1 799.8,306.6 			"/>
			<polygon fill="#597E43" points="692.8,335.1 731.6,410.4 799.8,306.6 			"/>
			<polygon fill="#1F443D" points="762.2,599.6 756.5,705.6 825.9,674.9 			"/>
			<polygon fill="#203935" points="899,487.7 964.1,613.5 980.7,431.5 			"/>
			<polygon fill="#2F3F3B" points="896,370.9 899,487.7 980.7,431.5 			"/>
			<polygon fill="#1D3738" points="756.5,704.8 671,741.6 884,745.4 			"/>
			<polygon fill="#324238" points="955.2,228.4 896.6,305.1 980.7,431.5 			"/>
			<polygon fill="#415940" points="799.8,306.6 896,370.9 896.6,305.1 			"/>
			<polygon fill="#2F473E" points="896.6,305.1 896,370.9 980.7,431.5 			"/>
			<polygon fill="#3B6E43" points="799.8,306.6 731.6,410.4 896,370.9 			"/>
			<polygon fill="#393B34" points="980.7,-6.9 955.2,228.4 980.7,431.5 			"/>
			<polygon fill="#485943" points="799.1,307.3 896.6,305.9 899.1,158.8 			"/>
			<polygon fill="#204B3F" points="762.2,599.6 825.9,674.9 899,487.7 			"/>
			<polygon fill="#2F5A3F" points="731.6,410.4 762.2,599.6 899,487.7 			"/>
			<polygon fill="#345C42" points="896,370.9 731.6,410.4 899,487.7 			"/>
			<polygon fill="#545A47" points="838.6,129.8 799.8,306.6 899.1,158.8 			"/>
			<polygon fill="#5E5141" points="773.7,95.3 839.5,130.1 939.4,84.9 			"/>
			<polygon fill="#1D3B36" points="899,487.7 929.1,625.9 964.1,613.5 			"/>
			<polygon fill="#443732" points="937.4,85.2 955.2,228.4 980.7,-6.9 			"/>
			<polygon fill="#54453C" points="838.6,129.8 899.1,158.8 937.4,85.2 			"/>
			<polygon fill="#563D39" points="773.7,95.4 937.4,85.2 980.7,-6.9 			"/>
			<polygon fill="#463D38" points="938,83.6 898.7,159.2 956.3,230.6 			"/>
			<polygon fill="#9C6C50" points="369.2,-6.9 773.7,95.4 980.7,-6.9 			"/>
			<polygon fill="#40473B" points="899.1,158.8 896.6,305.1 955.2,228.4 			"/>
			<polygon fill="#112E31" points="929.1,625.9 949.5,728.2 964.1,613.5 			"/>
		</g>
	</g>
</g>
</svg>
